# xmcd
#
# Track frame offsets:
#	150
#	16837
#	34142
#	53765
#	70939
#	93458
#	109856
#	126009
#	146892
#	165886
#	182665
#	200428
#	219313
#	219682
#
# Disc length: 3230 seconds
#
# Revision: 5
# Processed by: cddbd v1.5.2PL0 Copyright (c) Steve Scherf et al.
# Submitted via: EasyCDDAExtractor 15.3.0.1
#
DISCID=c60c9c0e
DTITLE=Enrique Iglesias - 7
DYEAR=2003
DGENRE=Pop
TTITLE0=Not In Love
TTITLE1=The Way You Touch Me
TTITLE2=Say It
TTITLE3=California Callin'
TTITLE4=Addicted
TTITLE5=Break Me Shake Me
TTITLE6=Free
TTITLE7=Be Yourself
TTITLE8=Wish You Were Here (With Me)
TTITLE9=You Rock Me
TTITLE10=Roamer
TTITLE11=Live It Up Tonight
TTITLE12=Untitled Hidden Track
TTITLE13=Adicto (Bonus)
EXTD=YEAR: 2003
EXTT0=
EXTT1=
EXTT2=
EXTT3=
EXTT4=
EXTT5=
EXTT6=
EXTT7=
EXTT8=
EXTT9=
EXTT10=
EXTT11=
EXTT12=
EXTT13=
PLAYORDER=
